<mxfile host="app.diagrams.net" modified="2022-06-27T13:02:20.894Z" agent="5.0 (Windows)" etag="XU1cW9e2goAWuGE707jZ" version="20.0.3" type="github">
  <diagram id="NepALiUyM_v6xSdJAFP5" name="Page-1">
    <mxGraphModel dx="1038" dy="564" grid="1" gridSize="10" guides="1" tooltips="1" connect="1" arrows="1" fold="1" page="1" pageScale="1" pageWidth="827" pageHeight="1169" math="0" shadow="0">
      <root>
        <mxCell id="0" />
        <mxCell id="1" parent="0" />
        <mxCell id="gHQQr4h0eB9n4CibxGFy-70" style="edgeStyle=orthogonalEdgeStyle;rounded=0;orthogonalLoop=1;jettySize=auto;html=1;exitX=0.5;exitY=1;exitDx=0;exitDy=0;entryX=0.5;entryY=0;entryDx=0;entryDy=0;fontSize=14;" edge="1" parent="1" source="gHQQr4h0eB9n4CibxGFy-1" target="gHQQr4h0eB9n4CibxGFy-7">
          <mxGeometry relative="1" as="geometry" />
        </mxCell>
        <mxCell id="gHQQr4h0eB9n4CibxGFy-1" value="Program" style="swimlane;startSize=23;fontSize=14;" vertex="1" parent="1">
          <mxGeometry x="80" width="130" height="60" as="geometry">
            <mxRectangle x="120" y="60" width="60" height="30" as="alternateBounds" />
          </mxGeometry>
        </mxCell>
        <mxCell id="gHQQr4h0eB9n4CibxGFy-2" value="&lt;font style=&quot;font-size: 15px;&quot;&gt;Main()&lt;/font&gt;" style="text;html=1;align=center;verticalAlign=middle;resizable=0;points=[];autosize=1;strokeColor=none;fillColor=none;" vertex="1" parent="gHQQr4h0eB9n4CibxGFy-1">
          <mxGeometry y="30" width="70" height="30" as="geometry" />
        </mxCell>
        <mxCell id="gHQQr4h0eB9n4CibxGFy-72" style="edgeStyle=orthogonalEdgeStyle;rounded=0;orthogonalLoop=1;jettySize=auto;html=1;entryX=0.5;entryY=0;entryDx=0;entryDy=0;fontSize=14;" edge="1" parent="1" source="gHQQr4h0eB9n4CibxGFy-7" target="gHQQr4h0eB9n4CibxGFy-24">
          <mxGeometry relative="1" as="geometry" />
        </mxCell>
        <mxCell id="gHQQr4h0eB9n4CibxGFy-74" style="edgeStyle=orthogonalEdgeStyle;rounded=0;orthogonalLoop=1;jettySize=auto;html=1;fontSize=14;entryX=0;entryY=0;entryDx=0;entryDy=0;" edge="1" parent="1" source="gHQQr4h0eB9n4CibxGFy-7" target="gHQQr4h0eB9n4CibxGFy-69">
          <mxGeometry relative="1" as="geometry">
            <mxPoint x="250" y="320" as="targetPoint" />
            <Array as="points">
              <mxPoint x="240" y="120" />
              <mxPoint x="240" y="320" />
            </Array>
          </mxGeometry>
        </mxCell>
        <mxCell id="gHQQr4h0eB9n4CibxGFy-7" value="LoginForm" style="swimlane;fontSize=15;" vertex="1" parent="1">
          <mxGeometry x="80" y="90" width="130" height="60" as="geometry" />
        </mxCell>
        <mxCell id="gHQQr4h0eB9n4CibxGFy-8" value="void Login()" style="text;html=1;align=center;verticalAlign=middle;resizable=0;points=[];autosize=1;strokeColor=none;fillColor=none;fontSize=15;" vertex="1" parent="gHQQr4h0eB9n4CibxGFy-7">
          <mxGeometry x="4" y="30" width="100" height="30" as="geometry" />
        </mxCell>
        <mxCell id="gHQQr4h0eB9n4CibxGFy-73" style="edgeStyle=orthogonalEdgeStyle;rounded=0;orthogonalLoop=1;jettySize=auto;html=1;entryX=0.5;entryY=0;entryDx=0;entryDy=0;fontSize=14;" edge="1" parent="1" source="gHQQr4h0eB9n4CibxGFy-24" target="gHQQr4h0eB9n4CibxGFy-26">
          <mxGeometry relative="1" as="geometry" />
        </mxCell>
        <mxCell id="gHQQr4h0eB9n4CibxGFy-24" value="MainForm" style="swimlane;fontSize=14;" vertex="1" parent="1">
          <mxGeometry x="80" y="200" width="130" height="150" as="geometry" />
        </mxCell>
        <mxCell id="gHQQr4h0eB9n4CibxGFy-10" value="Form Filling()" style="text;strokeColor=none;fillColor=none;align=left;verticalAlign=middle;spacingLeft=4;spacingRight=4;overflow=hidden;points=[[0,0.5],[1,0.5]];portConstraint=eastwest;rotatable=0;fontSize=14;" vertex="1" parent="gHQQr4h0eB9n4CibxGFy-24">
          <mxGeometry y="25" width="150" height="30" as="geometry" />
        </mxCell>
        <mxCell id="gHQQr4h0eB9n4CibxGFy-11" value="void AddBook()" style="text;strokeColor=none;fillColor=none;align=left;verticalAlign=middle;spacingLeft=4;spacingRight=4;overflow=hidden;points=[[0,0.5],[1,0.5]];portConstraint=eastwest;rotatable=0;fontSize=14;" vertex="1" parent="gHQQr4h0eB9n4CibxGFy-24">
          <mxGeometry y="55" width="130" height="30" as="geometry" />
        </mxCell>
        <mxCell id="gHQQr4h0eB9n4CibxGFy-12" value="void RemoveBook()" style="text;strokeColor=none;fillColor=none;align=left;verticalAlign=middle;spacingLeft=4;spacingRight=4;overflow=hidden;points=[[0,0.5],[1,0.5]];portConstraint=eastwest;rotatable=0;fontSize=14;" vertex="1" parent="gHQQr4h0eB9n4CibxGFy-24">
          <mxGeometry y="85" width="150" height="30" as="geometry" />
        </mxCell>
        <mxCell id="gHQQr4h0eB9n4CibxGFy-25" value="void LogOut()" style="text;strokeColor=none;fillColor=none;align=left;verticalAlign=middle;spacingLeft=4;spacingRight=4;overflow=hidden;points=[[0,0.5],[1,0.5]];portConstraint=eastwest;rotatable=0;fontSize=14;" vertex="1" parent="gHQQr4h0eB9n4CibxGFy-24">
          <mxGeometry y="115" width="150" height="30" as="geometry" />
        </mxCell>
        <mxCell id="gHQQr4h0eB9n4CibxGFy-77" style="edgeStyle=orthogonalEdgeStyle;rounded=0;orthogonalLoop=1;jettySize=auto;html=1;entryX=0;entryY=0.5;entryDx=0;entryDy=0;fontSize=14;" edge="1" parent="1" source="gHQQr4h0eB9n4CibxGFy-26" target="gHQQr4h0eB9n4CibxGFy-64">
          <mxGeometry relative="1" as="geometry" />
        </mxCell>
        <mxCell id="gHQQr4h0eB9n4CibxGFy-26" value="BookAddForm" style="swimlane;fontSize=14;" vertex="1" parent="1">
          <mxGeometry x="80" y="390" width="130" height="85" as="geometry" />
        </mxCell>
        <mxCell id="gHQQr4h0eB9n4CibxGFy-28" value="void AddBook()" style="text;html=1;strokeColor=none;fillColor=none;align=center;verticalAlign=middle;whiteSpace=wrap;rounded=0;fontSize=14;" vertex="1" parent="gHQQr4h0eB9n4CibxGFy-26">
          <mxGeometry y="25" width="100" height="30" as="geometry" />
        </mxCell>
        <mxCell id="gHQQr4h0eB9n4CibxGFy-29" value="void exit()" style="text;html=1;strokeColor=none;fillColor=none;align=center;verticalAlign=middle;whiteSpace=wrap;rounded=0;fontSize=14;" vertex="1" parent="gHQQr4h0eB9n4CibxGFy-26">
          <mxGeometry y="55" width="70" height="30" as="geometry" />
        </mxCell>
        <mxCell id="gHQQr4h0eB9n4CibxGFy-30" value="DataBaseOperation" style="swimlane;fontSize=14;" vertex="1" parent="1">
          <mxGeometry x="280" y="50" width="160" height="154" as="geometry" />
        </mxCell>
        <mxCell id="gHQQr4h0eB9n4CibxGFy-35" value="&lt;div style=&quot;font-size: 14px;&quot; align=&quot;left&quot;&gt;string server_adress&lt;/div&gt;" style="text;html=1;strokeColor=none;fillColor=none;align=left;verticalAlign=middle;whiteSpace=wrap;rounded=0;fontSize=14;" vertex="1" parent="gHQQr4h0eB9n4CibxGFy-30">
          <mxGeometry x="3" y="26" width="147" height="30" as="geometry" />
        </mxCell>
        <mxCell id="gHQQr4h0eB9n4CibxGFy-36" value="&lt;div style=&quot;font-size: 14px;&quot; align=&quot;left&quot;&gt;bool getBook()&lt;/div&gt;" style="text;html=1;strokeColor=none;fillColor=none;align=left;verticalAlign=middle;whiteSpace=wrap;rounded=0;fontSize=14;" vertex="1" parent="gHQQr4h0eB9n4CibxGFy-30">
          <mxGeometry x="3" y="64" width="147" height="30" as="geometry" />
        </mxCell>
        <mxCell id="gHQQr4h0eB9n4CibxGFy-37" value="bool addBook()" style="text;html=1;strokeColor=none;fillColor=none;align=left;verticalAlign=middle;whiteSpace=wrap;rounded=0;fontSize=14;" vertex="1" parent="gHQQr4h0eB9n4CibxGFy-30">
          <mxGeometry x="3" y="94" width="127" height="30" as="geometry" />
        </mxCell>
        <mxCell id="gHQQr4h0eB9n4CibxGFy-38" value="boll removeBook()" style="text;html=1;strokeColor=none;fillColor=none;align=left;verticalAlign=middle;whiteSpace=wrap;rounded=0;fontSize=14;" vertex="1" parent="gHQQr4h0eB9n4CibxGFy-30">
          <mxGeometry x="3" y="124" width="117" height="30" as="geometry" />
        </mxCell>
        <mxCell id="gHQQr4h0eB9n4CibxGFy-79" style="edgeStyle=orthogonalEdgeStyle;rounded=0;orthogonalLoop=1;jettySize=auto;html=1;fontSize=14;" edge="1" parent="1" source="gHQQr4h0eB9n4CibxGFy-31">
          <mxGeometry relative="1" as="geometry">
            <mxPoint x="440" y="110" as="targetPoint" />
            <Array as="points">
              <mxPoint x="760" y="345" />
              <mxPoint x="760" y="20" />
              <mxPoint x="510" y="20" />
            </Array>
          </mxGeometry>
        </mxCell>
        <mxCell id="gHQQr4h0eB9n4CibxGFy-31" value="Storege" style="swimlane;fontSize=14;" vertex="1" parent="1">
          <mxGeometry x="580" y="270" width="130" height="150" as="geometry" />
        </mxCell>
        <mxCell id="gHQQr4h0eB9n4CibxGFy-59" value="List&amp;lt;Book&amp;gt; Book " style="text;html=1;strokeColor=none;fillColor=none;align=left;verticalAlign=middle;whiteSpace=wrap;rounded=0;fontSize=14;" vertex="1" parent="gHQQr4h0eB9n4CibxGFy-31">
          <mxGeometry y="26" width="120" height="30" as="geometry" />
        </mxCell>
        <mxCell id="gHQQr4h0eB9n4CibxGFy-62" value="bool loadBookList()" style="text;html=1;strokeColor=none;fillColor=none;align=left;verticalAlign=middle;whiteSpace=wrap;rounded=0;fontSize=14;" vertex="1" parent="gHQQr4h0eB9n4CibxGFy-31">
          <mxGeometry y="69" width="130" height="30" as="geometry" />
        </mxCell>
        <mxCell id="gHQQr4h0eB9n4CibxGFy-64" value="bool addBook()" style="text;html=1;strokeColor=none;fillColor=none;align=left;verticalAlign=middle;whiteSpace=wrap;rounded=0;fontSize=14;" vertex="1" parent="gHQQr4h0eB9n4CibxGFy-31">
          <mxGeometry y="90" width="127" height="30" as="geometry" />
        </mxCell>
        <mxCell id="gHQQr4h0eB9n4CibxGFy-65" value="boll removeBook()" style="text;html=1;strokeColor=none;fillColor=none;align=left;verticalAlign=middle;whiteSpace=wrap;rounded=0;fontSize=14;" vertex="1" parent="gHQQr4h0eB9n4CibxGFy-31">
          <mxGeometry y="120" width="117" height="30" as="geometry" />
        </mxCell>
        <mxCell id="gHQQr4h0eB9n4CibxGFy-66" value="" style="endArrow=none;html=1;rounded=0;fontSize=14;" edge="1" parent="gHQQr4h0eB9n4CibxGFy-31">
          <mxGeometry width="50" height="50" relative="1" as="geometry">
            <mxPoint y="60" as="sourcePoint" />
            <mxPoint x="130" y="60" as="targetPoint" />
          </mxGeometry>
        </mxCell>
        <mxCell id="gHQQr4h0eB9n4CibxGFy-32" value="Book" style="swimlane;fontSize=14;" vertex="1" parent="1">
          <mxGeometry x="570" y="30" width="160" height="220" as="geometry" />
        </mxCell>
        <mxCell id="gHQQr4h0eB9n4CibxGFy-45" value="int id" style="text;html=1;strokeColor=none;fillColor=none;align=left;verticalAlign=middle;whiteSpace=wrap;rounded=0;fontSize=14;" vertex="1" parent="gHQQr4h0eB9n4CibxGFy-32">
          <mxGeometry y="26" width="160" height="30" as="geometry" />
        </mxCell>
        <mxCell id="gHQQr4h0eB9n4CibxGFy-46" value="string name" style="text;html=1;strokeColor=none;fillColor=none;align=left;verticalAlign=middle;whiteSpace=wrap;rounded=0;fontSize=14;" vertex="1" parent="gHQQr4h0eB9n4CibxGFy-32">
          <mxGeometry y="47" width="160" height="30" as="geometry" />
        </mxCell>
        <mxCell id="gHQQr4h0eB9n4CibxGFy-47" value="&lt;div&gt;srting author&lt;/div&gt;" style="text;html=1;strokeColor=none;fillColor=none;align=left;verticalAlign=middle;whiteSpace=wrap;rounded=0;fontSize=14;" vertex="1" parent="gHQQr4h0eB9n4CibxGFy-32">
          <mxGeometry y="67" width="160" height="30" as="geometry" />
        </mxCell>
        <mxCell id="gHQQr4h0eB9n4CibxGFy-48" value="string yearOfPublication" style="text;html=1;strokeColor=none;fillColor=none;align=left;verticalAlign=middle;whiteSpace=wrap;rounded=0;fontSize=14;" vertex="1" parent="gHQQr4h0eB9n4CibxGFy-32">
          <mxGeometry y="87" width="160" height="30" as="geometry" />
        </mxCell>
        <mxCell id="gHQQr4h0eB9n4CibxGFy-49" value="int qualitiOfPages" style="text;html=1;strokeColor=none;fillColor=none;align=left;verticalAlign=middle;whiteSpace=wrap;rounded=0;fontSize=14;" vertex="1" parent="gHQQr4h0eB9n4CibxGFy-32">
          <mxGeometry y="107" width="150" height="30" as="geometry" />
        </mxCell>
        <mxCell id="gHQQr4h0eB9n4CibxGFy-50" value="string ganre" style="text;html=1;strokeColor=none;fillColor=none;align=left;verticalAlign=middle;whiteSpace=wrap;rounded=0;fontSize=14;" vertex="1" parent="gHQQr4h0eB9n4CibxGFy-32">
          <mxGeometry y="127" width="150" height="30" as="geometry" />
        </mxCell>
        <mxCell id="gHQQr4h0eB9n4CibxGFy-52" value="Book()" style="text;html=1;strokeColor=none;fillColor=none;align=left;verticalAlign=middle;whiteSpace=wrap;rounded=0;fontSize=14;" vertex="1" parent="gHQQr4h0eB9n4CibxGFy-32">
          <mxGeometry y="167" width="160" height="30" as="geometry" />
        </mxCell>
        <mxCell id="gHQQr4h0eB9n4CibxGFy-57" value="string ToString()" style="text;html=1;strokeColor=none;fillColor=none;align=left;verticalAlign=middle;whiteSpace=wrap;rounded=0;fontSize=14;" vertex="1" parent="gHQQr4h0eB9n4CibxGFy-32">
          <mxGeometry y="187" width="160" height="30" as="geometry" />
        </mxCell>
        <mxCell id="gHQQr4h0eB9n4CibxGFy-76" style="edgeStyle=orthogonalEdgeStyle;rounded=0;orthogonalLoop=1;jettySize=auto;html=1;entryX=1;entryY=0.75;entryDx=0;entryDy=0;fontSize=14;" edge="1" parent="1" source="gHQQr4h0eB9n4CibxGFy-33" target="gHQQr4h0eB9n4CibxGFy-30">
          <mxGeometry relative="1" as="geometry" />
        </mxCell>
        <mxCell id="gHQQr4h0eB9n4CibxGFy-33" value="Authorizer" style="swimlane;fontSize=14;" vertex="1" parent="1">
          <mxGeometry x="290" y="250" width="130" height="110" as="geometry" />
        </mxCell>
        <mxCell id="gHQQr4h0eB9n4CibxGFy-67" value="int autorize_id" style="text;html=1;strokeColor=none;fillColor=none;align=left;verticalAlign=middle;whiteSpace=wrap;rounded=0;fontSize=14;" vertex="1" parent="gHQQr4h0eB9n4CibxGFy-33">
          <mxGeometry y="30" width="140" height="30" as="geometry" />
        </mxCell>
        <mxCell id="gHQQr4h0eB9n4CibxGFy-68" value="bool login()" style="text;html=1;strokeColor=none;fillColor=none;align=left;verticalAlign=middle;whiteSpace=wrap;rounded=0;fontSize=14;" vertex="1" parent="gHQQr4h0eB9n4CibxGFy-33">
          <mxGeometry y="50" width="140" height="30" as="geometry" />
        </mxCell>
        <mxCell id="gHQQr4h0eB9n4CibxGFy-69" value="int get_autorize_id()" style="text;html=1;strokeColor=none;fillColor=none;align=left;verticalAlign=middle;whiteSpace=wrap;rounded=0;fontSize=14;" vertex="1" parent="gHQQr4h0eB9n4CibxGFy-33">
          <mxGeometry y="70" width="130" height="30" as="geometry" />
        </mxCell>
        <mxCell id="gHQQr4h0eB9n4CibxGFy-42" value="" style="endArrow=none;html=1;rounded=0;fontSize=14;" edge="1" parent="1">
          <mxGeometry width="50" height="50" relative="1" as="geometry">
            <mxPoint x="280" y="106" as="sourcePoint" />
            <mxPoint x="440" y="106" as="targetPoint" />
          </mxGeometry>
        </mxCell>
        <mxCell id="gHQQr4h0eB9n4CibxGFy-58" value="" style="endArrow=none;html=1;rounded=0;fontSize=14;exitX=0;exitY=0.75;exitDx=0;exitDy=0;entryX=1;entryY=0.75;entryDx=0;entryDy=0;" edge="1" parent="1" source="gHQQr4h0eB9n4CibxGFy-32" target="gHQQr4h0eB9n4CibxGFy-32">
          <mxGeometry width="50" height="50" relative="1" as="geometry">
            <mxPoint x="780" y="220" as="sourcePoint" />
            <mxPoint x="830" y="170" as="targetPoint" />
          </mxGeometry>
        </mxCell>
        <mxCell id="gHQQr4h0eB9n4CibxGFy-75" style="edgeStyle=orthogonalEdgeStyle;rounded=0;orthogonalLoop=1;jettySize=auto;html=1;exitX=0;exitY=0.25;exitDx=0;exitDy=0;entryX=1;entryY=0.5;entryDx=0;entryDy=0;fontSize=14;" edge="1" parent="1" source="gHQQr4h0eB9n4CibxGFy-57" target="gHQQr4h0eB9n4CibxGFy-69">
          <mxGeometry relative="1" as="geometry" />
        </mxCell>
        <mxCell id="gHQQr4h0eB9n4CibxGFy-78" style="edgeStyle=orthogonalEdgeStyle;rounded=0;orthogonalLoop=1;jettySize=auto;html=1;fontSize=14;entryX=0;entryY=0.25;entryDx=0;entryDy=0;" edge="1" parent="1" source="gHQQr4h0eB9n4CibxGFy-11" target="gHQQr4h0eB9n4CibxGFy-64">
          <mxGeometry relative="1" as="geometry">
            <mxPoint x="260" y="370" as="targetPoint" />
            <Array as="points">
              <mxPoint x="230" y="270" />
              <mxPoint x="230" y="368" />
            </Array>
          </mxGeometry>
        </mxCell>
      </root>
    </mxGraphModel>
  </diagram>
</mxfile>
